<?xml version="1.0" encoding="UTF-8"?> <svg xmlns="http://www.w3.org/2000/svg" width="20" height="20" viewBox="0 0 20 20" fill="none"><path d="M10 2.5C14.1421 2.5 17.5 5.85786 17.5 10C17.5 14.1421 14.1421 17.5 10 17.5C5.85786 17.5 2.5 14.1421 2.5 10C2.5 5.85786 5.85786 2.5 10 2.5ZM13.6533 7.11621C13.4413 6.93969 13.126 6.96788 12.9492 7.17969L10.1846 10.4971C9.84749 10.9016 9.62668 11.1646 9.43945 11.335C9.26319 11.4952 9.17778 11.516 9.12207 11.5186C9.06634 11.521 8.97916 11.508 8.78906 11.3643C8.58721 11.2116 8.3439 10.9699 7.97168 10.5977L7.01953 9.64648C6.82424 9.45155 6.50765 9.45133 6.3125 9.64648C6.11767 9.84166 6.11767 10.1583 6.3125 10.3535L7.26465 11.3047C7.61598 11.656 7.91546 11.9578 8.18555 12.1621C8.46718 12.3751 8.78234 12.5339 9.16699 12.5166C9.55171 12.4992 9.85108 12.3127 10.1123 12.0752C10.3629 11.8473 10.634 11.5195 10.9521 11.1377L13.7168 7.82031C13.8935 7.60827 13.8652 7.29304 13.6533 7.11621Z" fill="#955FE9"></path></svg> 