<?xml version="1.0" encoding="UTF-8"?> <svg xmlns="http://www.w3.org/2000/svg" width="50" height="50" viewBox="0 0 50 50" fill="none"><rect x="0.5" y="0.5" width="49" height="49" rx="9.5" stroke="url(#paint0_linear_185_17)"></rect><path fill-rule="evenodd" clip-rule="evenodd" d="M24.8116 39.9172C21.9656 39.9172 20.643 39.5 18.3441 37.8309C16.8899 39.7086 12.2851 41.176 12.0843 38.6654C12.0843 36.7807 11.6688 35.1881 11.1979 33.4495C10.6371 31.3074 10 28.922 10 25.4656C10 17.2105 16.7445 11 24.7354 11C32.7332 11 38.9999 17.5165 38.9999 25.5421C39.0268 33.4436 32.6788 39.8751 24.8116 39.9172ZM24.9293 18.1354C21.0377 17.9337 18.0048 20.6391 17.3331 24.8814C16.7791 28.3935 17.7624 32.6705 18.6003 32.8931C19.0019 32.9905 20.0129 32.1698 20.643 31.5369C21.6675 33.4495 23.6669 34.5633 24.9293 34.6649C28.9616 34.8597 31.6384 29.9074 31.9092 25.862C32.0668 21.808 28.9622 18.3744 24.9293 18.1424L24.9293 18.1354Z" fill="url(#paint1_linear_185_17)"></path><defs><linearGradient id="paint0_linear_185_17" x1="25" y1="0" x2="25" y2="50" gradientUnits="userSpaceOnUse"><stop stop-color="#902EBB"></stop><stop offset="1" stop-color="#1FA4EF"></stop></linearGradient><linearGradient id="paint1_linear_185_17" x1="35.6538" y1="25.1282" x2="12.9744" y2="38.5128" gradientUnits="userSpaceOnUse"><stop stop-color="#902EBB"></stop><stop offset="1" stop-color="#15AEF3"></stop></linearGradient></defs></svg> 